<svg xmlns="http://www.w3.org/2000/svg" width="1200" height="600" viewBox="0 0 1200 600">
  <defs>
    <linearGradient id="grad1" x1="0%" y1="0%" x2="100%" y2="100%">
      <stop offset="0%" style="stop-color:#0a0a3a;stop-opacity:1" />
      <stop offset="100%" style="stop-color:#1e3a8a;stop-opacity:1" />
    </linearGradient>
  </defs>
  <rect width="100%" height="100%" fill="url(#grad1)"/>
  <g opacity="0.3">
    <path d="M0,150 Q300,250 600,150 T1200,150" stroke="#1e90ff" stroke-width="2" fill="none"/>
    <path d="M0,200 Q300,300 600,200 T1200,200" stroke="#3498db" stroke-width="2" fill="none"/>
    <path d="M0,250 Q300,350 600,250 T1200,250" stroke="#1e90ff" stroke-width="2" fill="none"/>
  </g>
  <g opacity="0.5">
    <circle cx="200" cy="200" r="3" fill="#fff"/>
    <circle cx="400" cy="300" r="2" fill="#fff"/>
    <circle cx="600" cy="150" r="3" fill="#fff"/>
    <circle cx="800" cy="250" r="2" fill="#fff"/>
    <circle cx="1000" cy="200" r="3" fill="#fff"/>
    <circle cx="300" cy="400" r="2" fill="#fff"/>
    <circle cx="500" cy="350" r="3" fill="#fff"/>
    <circle cx="700" cy="450" r="2" fill="#fff"/>
    <circle cx="900" cy="350" r="3" fill="#fff"/>
    <circle cx="1100" cy="400" r="2" fill="#fff"/>
  </g>
</svg>