<svg xmlns="http://www.w3.org/2000/svg" width="400" height="300" viewBox="0 0 400 300">
  <rect width="100%" height="100%" fill="#f8f9fa"/>
  <circle cx="200" cy="150" r="80" fill="white" stroke="#e0e0e0" stroke-width="2"/>
  <g transform="translate(150, 130)">
    <path d="M17.64,9.2c0-0.64-0.05-1.25-0.16-1.84H9v3.48h4.84c-0.21,1.13-0.85,2.08-1.81,2.72v2.26h2.92C16.44,14.14,17.64,11.94,17.64,9.2z" fill="#4285f4"/>
    <path d="M9,18c2.43,0,4.47-0.8,5.96-2.18l-2.92-2.26c-0.81,0.54-1.84,0.86-3.04,0.86c-2.34,0-4.32-1.58-5.03-3.71H0.96v2.33C2.44,15.98,5.48,18,9,18z" fill="#34a853"/>
    <path d="M3.97,10.71c-0.18-0.54-0.28-1.11-0.28-1.71s0.1-1.17,0.28-1.71V4.96H0.96C0.35,6.17,0,7.54,0,9s0.35,2.83,0.96,4.04L3.97,10.71z" fill="#fbbc05"/>
    <path d="M9,3.58c1.32,0,2.5,0.45,3.44,1.35l2.58-2.58C13.46,0.89,11.43,0,9,0C5.48,0,2.44,2.02,0.96,4.96l3.01,2.33C4.68,5.16,6.66,3.58,9,3.58z" fill="#ea4335"/>
  </g>
  <text x="200" y="220" font-family="Arial" font-size="20" fill="#5f6368" text-anchor="middle">Google Ads</text>
</svg>