<svg xmlns="http://www.w3.org/2000/svg" width="1200" height="600" viewBox="0 0 1200 600">
  <defs>
    <linearGradient id="grad1" x1="0%" y1="0%" x2="100%" y2="100%">
      <stop offset="0%" style="stop-color:#0a0a3a;stop-opacity:1" />
      <stop offset="100%" style="stop-color:#1e3a8a;stop-opacity:1" />
    </linearGradient>
    <filter id="blur" x="-50%" y="-50%" width="200%" height="200%">
      <feGaussianBlur in="SourceGraphic" stdDeviation="10" />
    </filter>
  </defs>
  <rect width="100%" height="100%" fill="url(#grad1)"/>
  <g filter="url(#blur)">
    <path d="M0,400 Q300,300 600,400 T1200,400 V600 H0 Z" fill="#1e90ff" opacity="0.2"/>
    <path d="M0,450 Q300,350 600,450 T1200,450 V600 H0 Z" fill="#3498db" opacity="0.2"/>
  </g>
  <g opacity="0.5">
    <circle cx="200" cy="200" r="3" fill="#fff"/>
    <circle cx="400" cy="300" r="2" fill="#fff"/>
    <circle cx="600" cy="150" r="3" fill="#fff"/>
    <circle cx="800" cy="250" r="2" fill="#fff"/>
    <circle cx="1000" cy="200" r="3" fill="#fff"/>
    <circle cx="300" cy="400" r="2" fill="#fff"/>
    <circle cx="500" cy="350" r="3" fill="#fff"/>
    <circle cx="700" cy="450" r="2" fill="#fff"/>
    <circle cx="900" cy="350" r="3" fill="#fff"/>
    <circle cx="1100" cy="400" r="2" fill="#fff"/>
  </g>
</svg>