<svg xmlns="http://www.w3.org/2000/svg" width="600" height="400" viewBox="0 0 600 400">
  <rect width="100%" height="100%" fill="#f5f5f5"/>
  <rect x="50" y="50" width="500" height="300" rx="10" fill="#ffffff" stroke="#e0e0e0" stroke-width="2"/>
  
  <!-- 会议桌 -->
  <rect x="100" y="200" width="400" height="100" rx="5" fill="#d1d1d1"/>
  <rect x="120" y="190" width="360" height="10" rx="2" fill="#b0b0b0"/>
  
  <!-- 人物剪影 -->
  <circle cx="150" cy="150" r="30" fill="#3498db"/>
  <rect x="135" y="185" width="30" height="40" rx="5" fill="#3498db"/>
  
  <circle cx="250" cy="150" r="30" fill="#e74c3c"/>
  <rect x="235" y="185" width="30" height="40" rx="5" fill="#e74c3c"/>
  
  <circle cx="350" cy="150" r="30" fill="#2ecc71"/>
  <rect x="335" y="185" width="30" height="40" rx="5" fill="#2ecc71"/>
  
  <circle cx="450" cy="150" r="30" fill="#f39c12"/>
  <rect x="435" y="185" width="30" height="40" rx="5" fill="#f39c12"/>
  
  <!-- 笔记本电脑和文件 -->
  <rect x="140" y="220" width="40" height="30" rx="2" fill="#34495e"/>
  <rect x="140" y="215" width="40" height="5" rx="1" fill="#2c3e50"/>
  
  <rect x="240" y="220" width="40" height="30" rx="2" fill="#34495e"/>
  <rect x="240" y="215" width="40" height="5" rx="1" fill="#2c3e50"/>
  
  <rect x="340" y="225" width="30" height="20" rx="1" fill="#ecf0f1"/>
  <rect x="345" y="230" width="20" height="2" fill="#bdc3c7"/>
  <rect x="345" y="235" width="20" height="2" fill="#bdc3c7"/>
  <rect x="345" y="240" width="20" height="2" fill="#bdc3c7"/>
  
  <rect x="440" y="225" width="30" height="20" rx="1" fill="#ecf0f1"/>
  <rect x="445" y="230" width="20" height="2" fill="#bdc3c7"/>
  <rect x="445" y="235" width="20" height="2" fill="#bdc3c7"/>
  <rect x="445" y="240" width="20" height="2" fill="#bdc3c7"/>
  
  <text x="300" y="350" font-family="Arial" font-size="18" fill="#333" text-anchor="middle">我们的专业团队</text>
</svg>