<svg xmlns="http://www.w3.org/2000/svg" width="400" height="300" viewBox="0 0 400 300">
  <rect width="100%" height="100%" fill="#010101"/>
  <circle cx="200" cy="150" r="70" fill="#25F4EE" opacity="0.1"/>
  <circle cx="200" cy="150" r="60" fill="#FE2C55" opacity="0.1"/>
  <path d="M215,120 v40 c0,20 -20,35 -40,25 c-10,-5 -15,-15 -15,-25 c0,-15 10,-25 25,-25 v15 c-5,0 -10,5 -10,10 c0,10 10,15 15,5 v-45 h15 c0,10 10,15 20,15 v15 c-5,0 -15,-5 -20,-10 z" fill="white"/>
  <text x="200" y="220" font-family="Arial" font-size="20" fill="white" text-anchor="middle">TikTok Ads</text>
</svg>